<?xml version="1.0" encoding="UTF-8"?>
<svg id="Layer_2" data-name="Layer 2" xmlns="http://www.w3.org/2000/svg" xmlns:xlink="http://www.w3.org/1999/xlink"
     viewBox="0 0 178.61 40.01">
    <defs>
        <style>
            .cls-1 {
            fill: #fff;
            }

            .cls-2 {
            fill: #d1d1d1;
            }

            .cls-3 {
            fill: #e8e8e8;
            }

            .cls-4 {
            fill: #ffd61d;
            }

            .cls-5 {
            fill: url(#linear-gradient);
            }

            .cls-6 {
            fill: #d2d2d2;
            }
        </style>
        <linearGradient id="linear-gradient" x1="70.51" y1="1065.53" x2="84.37" y2="1051.17"
                        gradientTransform="translate(0 -1035.91)" gradientUnits="userSpaceOnUse">
            <stop offset="0" stop-color="#f6a45a"/>
            <stop offset=".07" stop-color="#f69954"/>
            <stop offset=".2" stop-color="#f67b43"/>
            <stop offset=".36" stop-color="#f74b27"/>
            <stop offset=".43" stop-color="#f7351b"/>
            <stop offset="1" stop-color="#d72b1e"/>
        </linearGradient>
    </defs>
    <g id="_Слой_1" data-name="Слой 1">
        <g id="Layer_1-2" data-name="Layer 1-2">
            <path class="cls-6"
                  d="m.01,30.41v-12.7c-.1-1.6.4-3.3,1.5-4.5,1.1-1.1,2.7-1.7,4.3-1.6,1.6-.1,3.2.5,4.4,1.6,1.1,1.3,1.7,2.9,1.6,4.5v2.4h-3.9v-2.6c0-1.6-.7-2.4-2-2.4s-2,.8-2,2.4v13.2c0,1.6.7,2.4,2,2.4s2-.8,2-2.4v-3.5h3.9v3.3c.1,1.7-.4,3.3-1.6,4.6-1.2,1.1-2.8,1.7-4.4,1.6-1.6.1-3.2-.5-4.3-1.6C.41,33.71-.09,32.11.01,30.41Z"/>
            <path class="cls-6"
                  d="m13.71,36.31l3.9-24.5h5.9l3.9,24.5h-3.8l-.6-4.4h-4.8l-.7,4.4h-3.8Zm5-7.8h3.7l-1.8-12.3-1.9,12.3Z"/>
            <path class="cls-6"
                  d="m29.21,30.41v-1.5h3.9v1.7c0,1.6.6,2.4,1.8,2.4s1.8-.8,1.8-2.4c0-.7-.1-1.3-.4-1.9-.3-.6-.6-1.1-1.1-1.6s-.9-1-1.4-1.5-1.1-1-1.6-1.5-1-1.1-1.5-1.7-.8-1.4-1.1-2.1c-.3-.9-.4-1.7-.4-2.6-.1-1.7.5-3.3,1.6-4.5,1.1-1.1,2.6-1.7,4.2-1.6,1.5-.1,3,.5,4.1,1.6,1,1.3,1.5,2.9,1.4,4.5v.8h-3.6v-1c0-1.6-.6-2.4-1.9-2.4-.5,0-1.1.2-1.4.6-.4.5-.5,1.2-.5,1.8,0,.7.1,1.3.4,1.9.3.6.6,1.1,1.1,1.6s1,1,1.5,1.4c.5.5,1.1,1,1.6,1.5s1,1.1,1.5,1.7.8,1.4,1.1,2.1c.3.9.4,1.7.4,2.6.1,1.6-.4,3.3-1.5,4.6-1.1,1.1-2.6,1.7-4.2,1.6-1.6.1-3.1-.5-4.3-1.6-1-1.1-1.6-2.8-1.5-4.5Z"/>
            <path class="cls-6" d="m43.81,36.31V11.81h10.5v3.5h-6.7v6.8h5.3v3.5h-5.3v7.2h6.7v3.5h-10.5Z"/>
            <path class="cls-6"
                  d="m99.61,36.31V11.81h5.8c1.6-.1,3.1.4,4.3,1.4,1,1.2,1.5,2.7,1.4,4.2v.9c0,2.5-.8,4.2-2.5,4.9,1.9.7,2.9,2.5,2.9,5.2v2c.1,1.6-.4,3.1-1.5,4.3-1.2,1.1-2.8,1.6-4.4,1.5l-6,.1Zm3.9-14.6h1.5c.6,0,1.3-.2,1.7-.6.4-.6.7-1.3.6-2v-1.4c.1-.7-.1-1.3-.5-1.9-.4-.4-.9-.7-1.5-.6h-1.8v6.5Zm0,11h2.2c.6,0,1.1-.2,1.5-.5.4-.5.6-1.2.5-1.9v-2.1c.1-.8-.1-1.6-.6-2.3-.5-.5-1.2-.7-1.9-.6h-1.7v7.4Z"/>
            <path class="cls-6"
                  d="m113.71,36.31l3.9-24.5h5.9l3.9,24.5h-3.8l-.7-4.5h-4.7l-.7,4.5h-3.8Zm5-7.8h3.7l-1.8-12.3-1.9,12.3Z"/>
            <path class="cls-6" d="m127.41,15.31v-3.5h11.9v3.5h-4v21h-3.9V15.31h-4Z"/>
            <path class="cls-6" d="m140.81,15.31v-3.5h11.9v3.5h-4v21h-3.8V15.31h-4.1Z"/>
            <path class="cls-6" d="m155.31,36.31V11.81h3.8v21h6.3v3.5h-10.1Z"/>
            <path class="cls-6" d="m168.11,36.31V11.81h10.5v3.5h-6.6v6.8h5.3v3.5h-5.3v7.2h6.6v3.5h-10.5Z"/>
            <g>
                <g>
                    <circle class="cls-3" cx="78.01" cy="23.61" r="16.4"/>
                    <path class="cls-2"
                          d="m83.91,8.31c4.6,2.9,7.6,8,7.6,13.8,0,9-7.3,16.4-16.4,16.4-2.1,0-4-.4-5.8-1.1,2.5,1.6,5.5,2.5,8.7,2.5,9,0,16.4-7.3,16.4-16.4,0-6.9-4.4-12.8-10.5-15.2Z"/>
                </g>
                <g>
                    <g>
                        <path class="cls-1"
                              d="m73.81,16.11l-.1-.5c-.1-.4-.4-.6-.7-.7l-.5-.1.5-.1c.4-.1.6-.4.7-.7l.1-.5.1.5c.1.4.4.6.7.7l.5.1h-.5c-.4.1-.6.4-.7.7l-.1.6Z"/>
                        <path class="cls-1"
                              d="m70.71,15.71l-.2-.9c-.2-.6-.6-1.1-1.2-1.2l-.9-.2.9-.2c.6-.2,1.1-.6,1.2-1.2l.2-.9.2.9c.2.6.6,1.1,1.2,1.2l.9.2-.9.2c-.6.2-1.1.6-1.2,1.2l-.2.9Z"/>
                    </g>
                    <path class="cls-4"
                          d="m82.78,6.74c-.12-1-.87-1.75-1.87-1.75h-.5c.37-.62.62-1.25.62-1.87,0-1.75-1.37-3.12-3-3.12s-3.12,1.37-3.12,3.12c0,.62.25,1.25.62,1.87h-.5c-1,0-1.75.87-1.87,1.75-.12.62,0,1.25,0,1.87h0c.12.87,1,1.5,1.87,1.62.75,0,1.37-.62,1.37-1.5.12.87.87,1.5,1.62,1.5s1.5-.75,1.62-1.5c0,.87.62,1.5,1.37,1.5s1.75-.75,1.87-1.62h0c0-.62,0-1.25-.12-1.87Zm-7.24-3.62c0-1.37,1.12-2.5,2.5-2.5s2.5,1.12,2.5,2.5c0,.75-.25,1.37-.75,1.75h-3.37c-.62-.5-.87-1.12-.87-1.75Z"/>
                </g>
            </g>
            <path class="cls-5"
                  d="m75.51,14.01c-.4,0-.7.2-1,.5l-.6.6c-.5.5-1.1,1.1-1.5,1.4-1.2,1.4-2.1,3.1-2.4,5-.4,2.3-.6,4.5-.5,6.8,0,.4.3.8.8.8.2,0,.4-.1.6-.2.2-.2.3-.4.2-.6,0-2.2.3-4.3.9-6.4.7-2.1,1.7-2.6,1.9-2.7h1.4l-.3,1.2h8.1l-.8-4h.3c.7,0,1.2-.5,1.2-1.2s-.5-1.2-1.2-1.2h-7.1Zm-4.5,1.2c-2,0-3.6,1.6-3.6,3.5,0,1.2.6,2.4,1.7,3.1,0-.2.1-.3.1-.5,0-.1.1-.2.1-.4-1.2-.9-1.4-2.7-.5-3.9.5-.7,1.3-1.1,2.2-1.1.2,0,.5,0,.7.1l.1-.2.5-.5c-.4-.1-.8-.1-1.3-.1Zm3,4.7c-.6.5-1.1,1.2-1.3,1.9.5-.3,1-.8,1.3-1.3v-.3l.1-.4h-.1v.1Zm.4,1.2c-.9,1.2-1.4,2.5-1.6,4h3.5c.1-1.3.3-2.7.7-4h-2.6Zm3.3,0c-.4,1.3-.7,2.6-.7,4h3.9c-.1-1.3-.3-2.7-.7-4h-2.5Zm3.3,0c.4,1.3.6,2.6.7,4h3.5c-.2-1.4-.7-2.8-1.6-4h-2.6Zm-8.4,4.8v.4c0,.9.1,1.9.4,2.8h3.4c-.2-.9-.2-1.8-.2-2.8v-.4h-3.6Zm4.4,0v.4c0,.9.1,1.9.2,2.8h3.5c.2-.9.2-1.8.2-2.8v-.4h-3.9Zm4.7,0v.4c0,.9-.1,1.9-.2,2.8h3.4c.3-.9.5-1.8.5-2.8v-.4h-3.7Zm-8.3,4c.8,2,2.6,3.4,4.6,3.9-.7-1.2-1.3-2.5-1.5-3.9,0,0-3.1,0-3.1,0Zm4,0c.4,1.9,1,3.3,1.6,3.8.6-.5,1.2-1.9,1.6-3.8h-3.2Zm4,0c-.2,1.4-.7,2.7-1.5,3.9,2.1-.5,3.8-1.9,4.6-3.9,0,0-3.1,0-3.1,0Z"/>
        </g>
    </g>
</svg>